#N canvas 0 23 1440 819 12;
#X msg 612 333 all \$1;
#X msg 723 334 all \$1;
#X msg 834 333 all \$1;
#X msg 945 333 all \$1;
#X msg 502 334 all \$1;
#X obj 201 233 delay, f 7;
#X obj 201 260 bng 15 250 50 0 empty empty empty 17 7 0 10 -262144
-1 -1;
#X msg 202 331 all \$1;
#X obj 201 206 gate;
#X msg 350 335 all \$1;
#X floatatom 247 208 5 0 0 0 - - -;
#X obj 247 179 + 100;
#X msg 16 280 set \$1;
#X obj 59 362 clone freezeabst 16, f 127;
#X msg 138 249 1;
#X msg 138 280 next \$1;
#X msg 76 254 1;
#X msg 76 280 this \$1;
#X obj 96 166 tgl 15 0 empty empty empty 17 7 0 10 -262144 -1 -1 0
1;
#X obj 96 189 + 1;
#X msg 38 128 1;
#X msg 71 128 0;
#X msg 410 311 1;
#X msg 410 334 this \$1;
#X msg 350 311 1;
#X obj 350 273 gate 2, f 9;
#X obj 350 245 + 1;
#X msg 455 275 set \$1;
#X msg 202 307 1;
#X obj 264 277 gate 2, f 9;
#X obj 264 249 + 1;
#X msg 276 306 1;
#X msg 276 329 this \$1;
#X msg 296 236 set \$1;
#X msg 502 310 1;
#X msg 541 280 1;
#X msg 541 303 this \$1;
#X obj 515 242 gate 2, f 9;
#X obj 515 214 + 1;
#X msg 1175 186 set \$1;
#X obj 1175 162 * 5000;
#X msg 1310 191 set \$1;
#X obj 1310 164 / 5000;
#X msg 963 171 set \$1;
#X msg 1098 168 set \$1;
#X obj 1014 77 cyclone/loadmess 0.5;
#X obj 1246 85 cyclone/loadmess 3000;
#X msg 775 194 set \$1;
#X msg 910 199 set \$1;
#X obj 910 172 / 3000;
#X obj 775 170 * 3000;
#X obj 809 89 cyclone/loadmess 0;
#X msg 591 199 set \$1;
#X msg 726 204 set \$1;
#X obj 591 175 * 5000;
#X obj 726 177 / 5000;
#X obj 609 104 cyclone/loadmess 3000;
#X obj 1250 198 bng 15 250 50 0 empty empty empty 17 7 0 10 -262144
-1 -1;
#X obj 1019 179 bng 15 250 50 0 empty empty empty 17 7 0 10 -262144
-1 -1;
#X obj 844 185 bng 15 250 50 0 empty empty empty 17 7 0 10 -262144
-1 -1;
#X obj 652 192 bng 15 250 50 0 empty empty empty 17 7 0 10 -262144
-1 -1;
#X msg 908 257 set \$1;
#X msg 884 307 this \$1;
#X obj 834 254 + 1;
#X obj 834 280 gate 2;
#X obj 130 148 t b b b;
#X obj 40 41 counter 15;
#X obj 587 426 cnv 15 333 330 empty empty Mr._Freeze 8 18 0 24 -13330
-192064 0;
#X obj 594 500 bng 30 250 50 0 empty empty Freeze 0 -14 0 16 -99865
-192064 -192064;
#X obj 594 608 bng 30 250 50 0 empty empty Unfreeze 0 -14 0 16 -99865
-192064 -192064;
#X obj 626 620 tgl 18 0 empty empty All_/_One 0 -8 0 8 -99865 -192064
-192064 0 1;
#X obj 59 523 outlet~;
#X obj 59 333 inlet~;
#X floatatom 646 620 5 0 0 0 - - -;
#X obj 594 717 bng 30 250 50 0 empty empty Retrigger 0 -14 0 20 -99865
-192064 -192064;
#X obj 626 729 tgl 18 0 empty empty All_/_One 0 -8 0 8 -99865 -192064
-192064 0 1;
#X floatatom 646 729 5 0 0 0 - - -;
#X obj 747 512 hsl 128 18 0 1 0 0 empty empty Attack -2 -8 0 10 -99865
-192064 -192064 7620 1;
#X floatatom 879 512 5 0 0 0 - - -;
#X floatatom 879 550 5 0 0 2 - - -;
#X obj 747 550 hsl 128 18 0 1 0 0 empty empty Decay -2 -8 0 10 -99865
-192064 -192064 0 1;
#X floatatom 595 551 5 0 0 2 Freeze_From: - -;
#X floatatom 626 512 5 0 0 0 - - -;
#X obj 859 622 tgl 18 0 empty empty All_/_One 0 -8 0 10 -99865 -192064
-192064 0 1;
#X floatatom 879 587 5 0 0 2 - - -;
#X obj 747 587 hsl 128 18 0 1 0 0 empty empty Sustain -2 -8 0 10 -99865
-192064 -192064 6350 1;
#X floatatom 878 658 5 0 0 2 - - -;
#X obj 746 658 hsl 128 18 0 1 0 0 empty empty Release -2 -8 0 10 -99865
-192064 -192064 7620 1;
#X obj 594 659 tgl 18 0 empty empty Release/and_Clean 0 -8 0 10 -99865
-192064 -192064 0 1;
#X floatatom 879 622 5 0 0 0 - - -;
#X obj 59 454 *~;
#X obj 744 728 hsl 128 18 0 2 0 0 empty empty Volume -2 -8 0 10 -99865
-192064 -192064 6350 1;
#X floatatom 876 728 5 0 0 0 - - -;
#X msg 108 473 set \$1;
#X obj 169 477 bng 15 250 50 0 empty empty empty 17 7 0 10 -262144
-1 -1;
#X msg 240 464 set \$1;
#X obj 239 520 cyclone/loadmess 1;
#X obj 96 216 gate 2;
#X obj 301 57 cyclone/loadmess 1;
#X obj 997 503 inlet;
#X obj 1097 503 inlet;
#X obj 1212 503 inlet;
#X obj 1321 503 inlet;
#X obj 1427 501 inlet;
#X obj 1529 503 inlet;
#X obj 1644 501 inlet;
#X obj 1752 501 inlet;
#X text 972 482 Freeze button;
#X text 1065 483 Unfreeze Button;
#X text 1175 484 Retrigger Button;
#X text 1295 482 Volume (0-2);
#X text 1388 480 Attack (0-5000);
#X text 1500 480 Decay (0-3000);
#X text 1614 479 Sustain (0-1);
#X text 1710 478 Release (0-5000);
#X connect 0 0 13 5;
#X connect 1 0 13 6;
#X connect 2 0 13 7;
#X connect 3 0 13 8;
#X connect 4 0 13 4;
#X connect 5 0 6 0;
#X connect 6 0 29 1;
#X connect 7 0 13 2;
#X connect 8 0 5 0;
#X connect 9 0 13 3;
#X connect 10 0 5 1;
#X connect 11 0 10 0;
#X connect 12 0 13 1;
#X connect 13 0 90 0;
#X connect 13 1 90 0;
#X connect 14 0 15 0;
#X connect 15 0 13 1;
#X connect 16 0 17 0;
#X connect 17 0 13 1;
#X connect 18 0 19 0;
#X connect 19 0 97 0;
#X connect 20 0 18 0;
#X connect 21 0 18 0;
#X connect 22 0 23 0;
#X connect 23 0 13 3;
#X connect 24 0 9 0;
#X connect 25 0 24 0;
#X connect 25 1 22 0;
#X connect 26 0 25 0;
#X connect 27 0 13 3;
#X connect 28 0 7 0;
#X connect 29 0 28 0;
#X connect 29 1 31 0;
#X connect 30 0 29 0;
#X connect 31 0 32 0;
#X connect 32 0 13 2;
#X connect 33 0 13 2;
#X connect 34 0 4 0;
#X connect 35 0 36 0;
#X connect 36 0 13 4;
#X connect 37 0 34 0;
#X connect 37 1 35 0;
#X connect 38 0 37 0;
#X connect 39 0 86 0;
#X connect 40 0 39 0;
#X connect 41 0 87 0;
#X connect 42 0 41 0;
#X connect 43 0 84 0;
#X connect 44 0 85 0;
#X connect 45 0 84 0;
#X connect 45 0 2 0;
#X connect 46 0 86 0;
#X connect 46 0 3 0;
#X connect 47 0 79 0;
#X connect 48 0 80 0;
#X connect 49 0 48 0;
#X connect 50 0 47 0;
#X connect 51 0 79 0;
#X connect 51 0 1 0;
#X connect 52 0 78 0;
#X connect 53 0 77 0;
#X connect 54 0 52 0;
#X connect 55 0 53 0;
#X connect 56 0 78 0;
#X connect 56 0 0 0;
#X connect 57 0 86 0;
#X connect 58 0 84 0;
#X connect 59 0 79 0;
#X connect 60 0 78 0;
#X connect 61 0 13 7;
#X connect 62 0 13 7;
#X connect 63 0 64 0;
#X connect 64 0 2 0;
#X connect 64 1 62 0;
#X connect 65 0 21 0;
#X connect 65 1 97 1;
#X connect 65 2 66 0;
#X connect 66 0 82 0;
#X connect 68 0 65 0;
#X connect 69 0 8 1;
#X connect 69 0 37 1;
#X connect 70 0 30 0;
#X connect 70 0 38 0;
#X connect 72 0 13 0;
#X connect 73 0 33 0;
#X connect 74 0 25 1;
#X connect 75 0 26 0;
#X connect 76 0 27 0;
#X connect 77 0 54 0;
#X connect 77 0 60 0;
#X connect 78 0 55 0;
#X connect 78 0 0 0;
#X connect 79 0 49 0;
#X connect 79 0 1 0;
#X connect 80 0 50 0;
#X connect 80 0 59 0;
#X connect 81 0 12 0;
#X connect 81 0 20 0;
#X connect 81 0 66 2;
#X connect 83 0 63 0;
#X connect 84 0 44 0;
#X connect 84 0 64 1;
#X connect 85 0 43 0;
#X connect 85 0 58 0;
#X connect 86 0 42 0;
#X connect 86 0 3 0;
#X connect 86 0 11 0;
#X connect 87 0 40 0;
#X connect 87 0 57 0;
#X connect 88 0 8 0;
#X connect 89 0 61 0;
#X connect 90 0 71 0;
#X connect 91 0 93 0;
#X connect 91 0 94 0;
#X connect 92 0 95 0;
#X connect 92 0 90 1;
#X connect 93 0 92 0;
#X connect 94 0 92 0;
#X connect 95 0 91 0;
#X connect 96 0 91 0;
#X connect 97 0 14 0;
#X connect 97 1 16 0;
#X connect 98 0 97 0;
#X connect 98 0 29 0;
#X connect 98 0 25 0;
#X connect 98 0 37 0;
#X connect 98 0 64 0;
#X connect 99 0 68 0;
#X connect 100 0 69 0;
#X connect 101 0 74 0;
#X connect 102 0 91 0;
#X connect 103 0 77 0;
#X connect 104 0 80 0;
#X connect 105 0 85 0;
#X connect 106 0 87 0;
#X coords 0 -1 1 1 333 334 1 587 424;
