#N canvas 802 23 638 467 12;
#X obj 124 469 rev3~ 100 100 0 0, f 30;
#X obj 124 355 gain~ 1 0 20 0 0;
#X floatatom 248 436 5 0 0 0 - - -;
#X obj 161 100 bng 15 250 50 0 empty empty empty 17 7 0 10 -262144
-1 -1;
#X msg 178 156 0;
#X obj 161 183 tgl 15 0 empty empty empty 17 7 0 10 -262144 -1 -1 0
1;
#X obj 161 212 sel 1 0, f 10;
#X msg 194 238 0;
#X msg 161 238 1;
#X msg 161 323 set \$1;
#X obj 161 297 line;
#X obj 178 126 delay 101;
#X msg 161 272 \$1 100;
#X obj 193 530 *~;
#X obj 123 513 *~;
#X msg 248 407 0;
#X msg 292 407 100;
#X obj 22 185 inlet~;
#X obj 161 65 inlet;
#X obj 124 557 outlet~;
#X obj 193 557 outlet~;
#X msg 396 375 1;
#X msg 433 375 0;
#X obj 409 494 else/adsr~ 1000 0 1 1000, f 32;
#X obj 428 323 inlet;
#X obj 625 443 inlet;
#X obj 570 446 inlet;
#X obj 525 447 inlet;
#X obj 481 448 inlet;
#X obj 300 308 inlet;
#X obj 379 322 inlet;
#X obj 300 343 bng 15 250 50 0 empty empty empty 17 7 0 10 -262144
-1 -1;
#X obj 292 379 delay 200;
#X obj 90 166 float \$1;
#X obj 90 144 bng 15 250 50 0 empty empty empty 17 7 0 10 -262144 -1
-1;
#X obj 90 188 print;
#X connect 0 0 14 0;
#X connect 0 1 13 0;
#X connect 1 0 0 0;
#X connect 2 0 0 3;
#X connect 3 0 5 0;
#X connect 3 0 11 0;
#X connect 4 0 5 0;
#X connect 5 0 6 0;
#X connect 6 0 8 0;
#X connect 6 0 21 0;
#X connect 6 1 7 0;
#X connect 7 0 12 0;
#X connect 8 0 12 0;
#X connect 9 0 1 0;
#X connect 10 0 9 0;
#X connect 11 0 4 0;
#X connect 12 0 10 0;
#X connect 13 0 20 0;
#X connect 14 0 19 0;
#X connect 15 0 2 0;
#X connect 16 0 2 0;
#X connect 17 0 1 0;
#X connect 18 0 3 0;
#X connect 18 0 34 0;
#X connect 21 0 23 0;
#X connect 22 0 23 0;
#X connect 23 0 14 1;
#X connect 23 0 13 1;
#X connect 24 0 22 0;
#X connect 24 0 34 0;
#X connect 25 0 23 4;
#X connect 26 0 23 3;
#X connect 27 0 23 2;
#X connect 28 0 23 1;
#X connect 29 0 31 0;
#X connect 29 0 34 0;
#X connect 30 0 21 0;
#X connect 30 0 34 0;
#X connect 31 0 15 0;
#X connect 31 0 32 0;
#X connect 32 0 16 0;
#X connect 33 0 35 0;
#X connect 34 0 33 0;
